<?xml version="1.0" standalone="no"?>
<!DOCTYPE svg PUBLIC "-//W3C//DTD SVG 20010904//EN"
 "http://www.w3.org/TR/2001/REC-SVG-20010904/DTD/svg10.dtd">
<svg version="1.0" xmlns="http://www.w3.org/2000/svg"
 width="1000.000000pt" height="1000.000000pt" viewBox="0 0 1000.000000 1000.000000"
 preserveAspectRatio="xMidYMid meet">
<metadata>
Created by potrace 1.11, written by Peter Selinger 2001-2013
</metadata>
<g transform="translate(0.000000,1000.000000) scale(0.100000,-0.100000)"
fill="#000000" stroke="none">
<path d="M4995 7223 c-65 -9 -146 -34 -200 -63 -31 -17 -65 -30 -75 -30 -27 0
-83 -26 -104 -48 -33 -37 -53 -172 -48 -319 4 -117 2 -133 -11 -133 -32 0 -37
-34 -21 -142 19 -133 23 -146 43 -161 9 -6 25 -39 35 -72 10 -33 29 -82 42
-109 29 -61 31 -129 5 -172 -24 -39 -256 -164 -304 -164 -17 0 -65 12 -106 26
-68 23 -86 26 -171 21 -66 -3 -118 -13 -169 -31 -95 -33 -106 -33 -149 5 -20
18 -61 44 -92 58 -48 23 -68 26 -155 26 -96 0 -103 -1 -174 -39 -41 -21 -92
-49 -113 -62 -21 -13 -38 -20 -38 -14 0 17 94 220 201 432 106 209 164 290
240 328 35 18 40 19 90 4 33 -10 68 -13 95 -9 25 3 45 2 49 -5 11 -18 78 -11
131 14 60 28 69 47 84 177 15 129 13 173 -10 201 -43 55 -165 64 -355 28 -168
-32 -190 -46 -387 -232 -370 -350 -439 -429 -639 -731 -153 -231 -219 -364
-226 -450 -9 -103 21 -140 207 -253 164 -99 301 -155 488 -197 87 -19 122 -21
334 -19 187 2 245 -1 272 -12 36 -15 30 -5 153 -266 33 -69 96 -190 140 -270
113 -203 136 -252 177 -369 55 -157 88 -351 108 -638 l4 -43 -563 0 -563 0 0
45 0 45 -40 0 -40 0 0 345 0 345 -145 0 -145 0 0 -345 c0 -223 -4 -345 -10
-345 -6 0 -10 122 -10 345 l0 345 -145 0 -145 0 0 -345 c0 -223 -4 -345 -10
-345 -6 0 -10 85 -10 235 l0 235 -110 0 -110 0 0 -235 0 -234 -107 -3 -108 -3
-3 -42 -3 -43 -115 0 -115 0 3 -82 3 -83 113 -3 112 -3 0 -39 0 -40 110 0 110
0 0 -240 0 -240 110 0 110 0 0 240 c0 153 4 240 10 240 6 0 10 -122 10 -345
l0 -345 145 0 145 0 0 345 c0 223 4 345 10 345 6 0 10 -122 10 -345 l0 -345
145 0 145 0 2 343 3 342 38 3 c36 3 37 4 37 43 l0 39 1780 0 1780 0 0 -39 c0
-39 1 -40 38 -43 l37 -3 3 -342 2 -343 145 0 145 0 0 345 c0 223 4 345 10 345
6 0 10 -122 10 -345 l0 -345 145 0 145 0 0 345 c0 223 4 345 10 345 6 0 10
-87 10 -240 l0 -240 110 0 110 0 0 240 0 240 110 0 110 0 0 40 0 39 113 3 112
3 3 83 3 82 -115 0 -115 0 -3 43 -3 42 -107 3 -108 3 0 234 0 235 -110 0 -110
0 0 -235 c0 -150 -4 -235 -10 -235 -6 0 -10 122 -10 345 l0 345 -145 0 -145 0
0 -345 c0 -223 -4 -345 -10 -345 -6 0 -10 122 -10 345 l0 345 -145 0 -145 0 0
-345 0 -345 -40 0 -40 0 0 -45 0 -45 -560 0 -560 0 0 109 c0 182 36 416 91
586 36 112 90 218 211 412 52 83 126 211 163 284 94 181 78 174 503 209 163
13 261 38 517 129 207 74 267 105 334 172 50 50 65 95 59 174 -14 168 -267
542 -578 856 -114 114 -349 323 -500 446 -68 54 -278 122 -405 130 -69 4 -85
2 -113 -17 -54 -34 -65 -74 -60 -235 4 -172 10 -184 95 -208 67 -19 119 -22
128 -7 3 6 28 10 55 10 27 0 65 7 84 17 34 16 35 16 86 -17 86 -55 146 -138
367 -510 94 -158 126 -220 119 -227 -3 -3 -33 12 -67 33 -104 63 -165 83 -246
84 -89 0 -154 -23 -229 -80 -60 -47 -51 -47 -188 -6 -117 34 -208 35 -313 1
-43 -14 -91 -25 -108 -25 -41 0 -290 126 -311 157 -27 41 -29 121 -5 176 11
26 26 77 33 112 6 36 15 65 19 65 20 0 38 51 49 130 6 47 13 99 16 117 4 23 1
36 -15 52 -19 19 -21 35 -25 198 -5 202 -17 258 -73 322 -27 32 -42 41 -81 47
-26 4 -69 15 -95 25 -45 18 -109 22 -182 12z"/>
<path d="M3779 3265 c-83 -16 -163 -44 -219 -78 -108 -64 -205 -182 -249 -300
-28 -77 -41 -203 -30 -286 25 -173 152 -308 335 -355 80 -21 257 -21 344 0 66
15 205 78 217 97 4 6 25 105 48 219 l42 208 -128 0 -127 0 -10 -47 c-6 -27
-18 -90 -28 -140 -18 -91 -18 -93 -52 -104 -20 -6 -71 -10 -121 -7 -103 5
-156 29 -198 92 -26 38 -28 49 -28 136 0 82 4 103 27 152 57 121 159 182 308
182 97 0 152 -20 209 -72 18 -18 38 -29 45 -25 6 4 53 41 105 82 l94 75 -52
48 c-95 87 -197 125 -361 133 -61 3 -123 -1 -171 -10z"/>
<path d="M4373 3248 c116 -289 247 -629 247 -644 0 -12 -13 -90 -30 -175 -16
-85 -30 -160 -30 -167 0 -10 32 -12 142 -10 l142 3 35 175 36 176 250 314
c138 173 254 321 258 328 7 9 -23 12 -137 12 l-145 0 -162 -201 -162 -202 -72
184 c-39 101 -75 192 -78 202 -6 15 -22 17 -153 17 -113 0 -145 -3 -141 -12z"/>
<path d="M5495 3248 c-3 -7 -49 -235 -104 -505 l-98 -493 133 0 132 0 10 48
c6 26 30 143 53 261 24 118 44 210 46 205 2 -5 43 -101 91 -214 l87 -205 62
-3 61 -3 163 210 c90 116 165 209 166 207 3 -3 -83 -453 -93 -488 -5 -17 6
-18 130 -18 l135 0 11 54 c59 283 186 947 182 951 -3 3 -58 5 -122 5 l-117 0
-228 -290 c-125 -160 -229 -290 -230 -288 -2 2 -42 100 -90 218 -48 118 -101
248 -117 288 l-30 72 -114 0 c-83 0 -116 -4 -119 -12z"/>
</g>
</svg>
